<svg xmlns="http://www.w3.org/2000/svg" width="760" height="760" viewBox="0 0 760 760" fill="none">
<g stroke="#bfe6ec" stroke-width="1.1" opacity="0.6">
<path d="M 314.1,300.0 L 313.4,304.8 L 312.4,309.5 L 311.1,314.1 L 309.4,318.6 L 307.3,323.0 L 304.7,327.2 L 301.5,331.0 L 297.8,334.5 L 293.5,337.4 L 288.7,339.7 L 283.6,341.3 L 278.3,342.2 L 273.1,342.6 L 268.0,342.5 L 263.2,342.2 L 258.6,341.9 L 254.3,341.8 L 250.0,342.1 L 245.7,342.7 L 241.0,343.7 L 236.0,345.0 L 230.4,346.2 L 224.4,347.2 L 218.0,347.7 L 211.5,347.3 L 205.1,346.0 L 199.3,343.6 L 194.4,340.1 L 190.6,335.8 L 188.2,330.7 L 187.2,325.2 L 187.4,319.6 L 188.7,314.1 L 190.7,309.0 L 193.1,304.3 L 195.4,300.0 L 197.5,296.0 L 199.0,292.3 L 200.1,288.5 L 200.6,284.5 L 200.9,280.3 L 201.2,275.8 L 201.9,271.0 L 203.1,266.2 L 205.2,261.5 L 208.2,257.2 L 212.1,253.5 L 216.9,250.7 L 222.3,248.9 L 228.0,248.1 L 233.9,248.2 L 239.5,249.0 L 245.0,250.4 L 250.0,252.1 L 254.7,253.7 L 259.2,255.3 L 263.5,256.6 L 267.9,257.7 L 272.5,258.6 L 277.3,259.4 L 282.3,260.4 L 287.4,261.7 L 292.5,263.4 L 297.4,265.8 L 302.0,268.7 L 305.9,272.3 L 309.1,276.3 L 311.5,280.8 L 313.1,285.5 L 314.0,290.3 L 314.3,295.2 L 314.1,300.0 Z"/>
<path d="M 369.8,300.0 L 368.6,308.9 L 366.7,317.7 L 364.2,326.3 L 361.1,334.8 L 357.1,343.0 L 352.3,350.8 L 346.3,358.0 L 339.3,364.5 L 331.3,369.9 L 322.4,374.2 L 312.8,377.2 L 303.0,378.9 L 293.2,379.6 L 283.6,379.5 L 274.6,379.0 L 266.1,378.4 L 258.0,378.2 L 250.0,378.7 L 241.9,379.9 L 233.2,381.7 L 223.8,384.1 L 213.4,386.4 L 202.1,388.3 L 190.1,389.2 L 177.9,388.5 L 166.1,386.0 L 155.2,381.5 L 146.0,375.1 L 139.0,366.9 L 134.4,357.4 L 132.5,347.1 L 133.0,336.6 L 135.4,326.4 L 139.1,316.8 L 143.6,308.0 L 148.0,300.0 L 151.8,292.6 L 154.7,285.6 L 156.6,278.5 L 157.7,271.1 L 158.2,263.2 L 158.8,254.7 L 160.0,245.8 L 162.3,236.7 L 166.2,227.9 L 171.8,219.9 L 179.2,213.1 L 188.1,207.8 L 198.2,204.4 L 208.9,202.9 L 219.8,203.1 L 230.5,204.7 L 240.6,207.3 L 250.0,210.3 L 258.8,213.5 L 267.1,216.4 L 275.3,218.9 L 283.5,220.9 L 292.0,222.5 L 301.0,224.1 L 310.3,225.9 L 319.9,228.3 L 329.5,231.6 L 338.7,236.0 L 347.2,241.5 L 354.5,248.1 L 360.5,255.7 L 365.0,264.0 L 368.0,272.8 L 369.7,281.8 L 370.3,291.0 L 369.8,300.0 Z"/>
<path d="M 433.2,300.0 L 431.4,313.6 L 428.5,327.1 L 424.7,340.3 L 419.9,353.2 L 413.8,365.7 L 406.4,377.6 L 397.3,388.7 L 386.6,398.6 L 374.3,406.9 L 360.7,413.4 L 346.1,418.0 L 331.0,420.7 L 316.0,421.8 L 301.5,421.6 L 287.6,420.8 L 274.6,419.9 L 262.2,419.7 L 250.0,420.3 L 237.6,422.1 L 224.4,425.0 L 209.9,428.6 L 194.1,432.2 L 176.8,435.0 L 158.5,436.4 L 139.8,435.4 L 121.6,431.6 L 105.0,424.7 L 90.9,414.8 L 80.2,402.3 L 73.3,387.7 L 70.3,372.1 L 71.0,356.0 L 74.7,340.4 L 80.4,325.7 L 87.2,312.2 L 93.9,300.0 L 99.8,288.7 L 104.3,277.9 L 107.2,267.1 L 108.8,255.8 L 109.6,243.7 L 110.5,230.7 L 112.3,217.1 L 115.9,203.2 L 121.8,189.8 L 130.5,177.5 L 141.7,167.0 L 155.4,159.0 L 170.8,153.8 L 187.2,151.5 L 203.8,151.8 L 220.1,154.2 L 235.6,158.2 L 250.0,162.9 L 263.5,167.7 L 276.2,172.2 L 288.7,175.9 L 301.2,179.0 L 314.3,181.5 L 327.9,183.9 L 342.3,186.7 L 357.0,190.4 L 371.6,195.4 L 385.7,202.1 L 398.6,210.5 L 409.8,220.6 L 419.0,232.2 L 425.9,244.9 L 430.5,258.4 L 433.1,272.2 L 433.9,286.2 L 433.2,300.0 Z"/>
<path d="M 499.0,300.0 L 496.5,318.5 L 492.6,336.8 L 487.4,354.7 L 480.9,372.3 L 472.7,389.3 L 462.5,405.5 L 450.2,420.6 L 435.7,434.0 L 419.0,445.3 L 400.4,454.2 L 380.6,460.4 L 360.1,464.0 L 339.7,465.5 L 319.9,465.2 L 301.1,464.1 L 283.4,463.0 L 266.5,462.6 L 250.0,463.5 L 233.1,466.0 L 215.2,469.9 L 195.6,474.7 L 174.0,479.6 L 150.5,483.5 L 125.6,485.3 L 100.2,484.0 L 75.5,478.8 L 53.0,469.4 L 33.8,456.0 L 19.2,439.0 L 9.8,419.2 L 5.8,397.9 L 6.7,376.1 L 11.8,354.9 L 19.6,334.9 L 28.8,316.6 L 37.9,300.0 L 45.9,284.6 L 52.0,270.0 L 55.9,255.3 L 58.1,239.9 L 59.2,223.5 L 60.5,205.9 L 62.9,187.4 L 67.8,168.5 L 75.8,150.2 L 87.5,133.5 L 102.9,119.3 L 121.4,108.4 L 142.3,101.4 L 164.6,98.2 L 187.2,98.6 L 209.4,101.9 L 230.4,107.2 L 250.0,113.7 L 268.3,120.2 L 285.6,126.3 L 302.5,131.4 L 319.6,135.5 L 337.3,138.9 L 355.9,142.2 L 375.4,146.0 L 395.4,151.0 L 415.3,157.8 L 434.4,166.9 L 451.9,178.4 L 467.2,192.2 L 479.6,207.9 L 489.0,225.2 L 495.3,243.5 L 498.9,262.3 L 499.9,281.2 L 499.0,300.0 Z"/>
<path d="M 572.9,300.0 L 569.6,324.0 L 564.6,347.7 L 557.9,370.9 L 549.4,393.7 L 538.7,415.8 L 525.6,436.8 L 509.7,456.4 L 490.8,473.8 L 469.1,488.4 L 445.1,499.9 L 419.3,508.0 L 392.8,512.7 L 366.3,514.6 L 340.7,514.3 L 316.3,512.8 L 293.3,511.4 L 271.5,510.9 L 250.0,512.0 L 228.1,515.3 L 204.8,520.3 L 179.4,526.6 L 151.4,532.9 L 121.0,538.0 L 88.7,540.3 L 55.8,538.6 L 23.8,531.9 L -5.5,519.7 L -30.3,502.3 L -49.3,480.2 L -61.4,454.6 L -66.7,427.0 L -65.4,398.7 L -58.9,371.2 L -48.8,345.3 L -36.9,321.6 L -25.0,300.0 L -14.7,280.1 L -6.8,261.1 L -1.7,242.0 L 1.1,222.1 L 2.6,200.8 L 4.2,178.0 L 7.4,153.9 L 13.7,129.5 L 24.2,105.8 L 39.3,84.1 L 59.2,65.7 L 83.2,51.6 L 110.3,42.4 L 139.2,38.3 L 168.6,38.8 L 197.3,43.1 L 224.6,50.0 L 250.0,58.4 L 273.7,66.9 L 296.2,74.7 L 318.1,81.4 L 340.3,86.7 L 363.2,91.2 L 387.4,95.4 L 412.6,100.3 L 438.5,106.8 L 464.3,115.7 L 489.1,127.4 L 511.9,142.3 L 531.6,160.2 L 547.8,180.6 L 559.9,203.0 L 568.1,226.7 L 572.7,251.1 L 574.1,275.6 L 572.9,300.0 Z"/>
<path d="M 592.2,470.0 L 593.0,474.0 L 593.1,478.0 L 592.4,482.1 L 591.1,486.0 L 589.1,489.7 L 586.4,493.1 L 583.3,496.1 L 579.9,498.8 L 576.2,501.2 L 572.5,503.3 L 568.7,505.3 L 564.9,507.1 L 561.1,508.9 L 557.2,510.6 L 553.1,512.1 L 548.9,513.5 L 544.5,514.5 L 540.0,515.1 L 535.4,515.1 L 530.9,514.4 L 526.6,513.1 L 522.6,511.1 L 519.1,508.6 L 516.1,505.6 L 513.6,502.4 L 511.6,499.1 L 509.9,495.9 L 508.3,492.9 L 506.6,490.1 L 504.7,487.5 L 502.5,485.0 L 499.8,482.6 L 496.8,479.9 L 493.6,477.0 L 490.4,473.7 L 487.5,470.0 L 485.1,465.9 L 483.5,461.4 L 482.9,456.8 L 483.5,452.3 L 485.2,448.0 L 487.9,444.2 L 491.6,440.9 L 495.9,438.2 L 500.7,436.2 L 505.6,434.7 L 510.5,433.8 L 515.2,433.1 L 519.8,432.7 L 524.0,432.3 L 528.1,431.9 L 532.1,431.4 L 536.0,430.9 L 540.0,430.5 L 544.0,430.2 L 548.2,430.2 L 552.3,430.5 L 556.4,431.3 L 560.3,432.5 L 564.0,434.2 L 567.5,436.2 L 570.7,438.6 L 573.5,441.2 L 576.1,443.9 L 578.6,446.8 L 580.9,449.7 L 583.1,452.7 L 585.3,455.8 L 587.4,459.1 L 589.3,462.5 L 591.0,466.2 L 592.2,470.0 Z"/>
<path d="M 641.2,470.0 L 642.6,477.7 L 642.8,485.6 L 641.6,493.4 L 639.0,501.0 L 635.1,508.1 L 630.0,514.7 L 624.0,520.6 L 617.3,525.8 L 610.2,530.4 L 603.0,534.5 L 595.6,538.3 L 588.3,541.9 L 580.8,545.3 L 573.3,548.6 L 565.4,551.6 L 557.3,554.3 L 548.8,556.2 L 540.0,557.3 L 531.1,557.3 L 522.4,556.1 L 514.0,553.5 L 506.3,549.6 L 499.5,544.7 L 493.7,539.0 L 488.9,532.8 L 485.0,526.4 L 481.6,520.2 L 478.5,514.4 L 475.3,509.0 L 471.6,503.9 L 467.3,499.2 L 462.2,494.4 L 456.3,489.3 L 450.1,483.6 L 443.9,477.2 L 438.2,470.0 L 433.6,462.0 L 430.5,453.4 L 429.4,444.5 L 430.5,435.7 L 433.8,427.4 L 439.1,419.9 L 446.2,413.5 L 454.6,408.4 L 463.8,404.4 L 473.3,401.6 L 482.8,399.8 L 492.0,398.5 L 500.8,397.6 L 509.1,396.9 L 517.0,396.1 L 524.7,395.2 L 532.3,394.3 L 540.0,393.5 L 547.8,392.9 L 555.8,392.9 L 563.8,393.5 L 571.7,395.0 L 579.4,397.4 L 586.6,400.6 L 593.3,404.5 L 599.4,409.1 L 605.0,414.1 L 610.0,419.5 L 614.8,425.0 L 619.2,430.7 L 623.6,436.5 L 627.8,442.5 L 631.8,448.8 L 635.6,455.5 L 638.8,462.6 L 641.2,470.0 Z"/>
<path d="M 703.0,470.0 L 705.2,482.4 L 705.5,495.1 L 703.6,507.7 L 699.4,519.9 L 693.1,531.4 L 684.9,541.9 L 675.2,551.4 L 664.5,559.8 L 653.1,567.3 L 641.4,573.9 L 629.6,580.0 L 617.7,585.8 L 605.8,591.3 L 593.6,596.5 L 580.9,601.4 L 567.8,605.6 L 554.1,608.8 L 540.0,610.6 L 525.7,610.6 L 511.6,608.6 L 498.1,604.4 L 485.7,598.2 L 474.8,590.3 L 465.4,581.1 L 457.7,571.1 L 451.4,560.8 L 446.0,550.8 L 441.0,541.4 L 435.9,532.7 L 430.0,524.6 L 422.9,516.9 L 414.7,509.2 L 405.3,501.0 L 395.3,491.9 L 385.3,481.6 L 376.1,470.0 L 368.6,457.1 L 363.7,443.3 L 361.9,429.0 L 363.7,414.8 L 369.0,401.4 L 377.6,389.4 L 389.0,379.1 L 402.5,370.8 L 417.3,364.5 L 432.6,360.0 L 447.9,356.9 L 462.8,354.9 L 476.8,353.5 L 490.2,352.3 L 502.9,351.0 L 515.3,349.6 L 527.6,348.1 L 540.0,346.8 L 552.6,345.9 L 565.5,345.9 L 578.3,346.9 L 591.1,349.3 L 603.4,353.1 L 615.0,358.2 L 625.8,364.6 L 635.6,372.0 L 644.6,380.1 L 652.7,388.6 L 660.3,397.5 L 667.6,406.7 L 674.5,416.0 L 681.3,425.8 L 687.9,435.9 L 693.9,446.7 L 699.0,458.0 L 703.0,470.0 Z"/>
<path d="M 772.5,470.0 L 775.8,487.7 L 776.2,505.8 L 773.5,523.8 L 767.5,541.2 L 758.5,557.6 L 746.8,572.7 L 732.9,586.2 L 717.6,598.2 L 701.4,608.8 L 684.7,618.3 L 667.8,627.0 L 650.9,635.2 L 633.8,643.1 L 616.4,650.6 L 598.4,657.5 L 579.7,663.6 L 560.2,668.1 L 540.0,670.6 L 519.6,670.6 L 499.5,667.7 L 480.2,661.8 L 462.6,653.0 L 446.9,641.6 L 433.6,628.5 L 422.6,614.2 L 413.5,599.6 L 405.9,585.3 L 398.8,571.9 L 391.4,559.5 L 383.0,548.0 L 373.0,537.0 L 361.2,526.0 L 347.8,514.3 L 333.5,501.3 L 319.2,486.6 L 306.1,470.0 L 295.5,451.6 L 288.4,431.9 L 285.9,411.5 L 288.4,391.2 L 296.0,372.1 L 308.3,354.9 L 324.5,340.2 L 343.8,328.4 L 364.9,319.4 L 386.8,313.0 L 408.6,308.7 L 429.8,305.8 L 449.9,303.8 L 468.9,302.0 L 487.1,300.2 L 504.8,298.2 L 522.3,296.1 L 540.0,294.2 L 558.0,292.9 L 576.3,292.9 L 594.7,294.4 L 612.9,297.8 L 630.5,303.2 L 647.1,310.5 L 662.4,319.6 L 676.5,330.1 L 689.2,341.7 L 700.9,353.9 L 711.7,366.6 L 722.0,379.6 L 732.0,393.0 L 741.7,406.9 L 751.0,421.4 L 759.6,436.7 L 766.9,452.9 L 772.5,470.0 Z"/>
</g></svg>